<?xml version="1.0" encoding="utf-8"?>
<!-- Generator: Adobe Illustrator 24.0.2, SVG Export Plug-In . SVG Version: 6.00 Build 0)  -->
<svg version="1.1" id="Capa_1" xmlns="http://www.w3.org/2000/svg" xmlns:xlink="http://www.w3.org/1999/xlink" x="0px" y="0px"
	 viewBox="0 0 176.7 176.7" style="enable-background:new 0 0 176.7 176.7;" xml:space="preserve">
<style type="text/css">
	.st0{fill:#FFFFFF;}
</style>
<g>
	<path class="st0" d="M142.9,69.6c-5.4,0-10.4,1.3-14.9,3.5l-16.6-27.4h18.3c1.7,0,3.1-1.4,3.1-3.1c0-1.7-1.4-3.1-3.1-3.1h-23.4
		c-1.7,0-3.1,1.4-3.1,3.1c0,0.1,0.1,0.2,0.1,0.4c-0.1,0.7,0,1.4,0.4,2l5.6,9.3H60c-0.1,0-0.2,0.1-0.3,0.1l-5.2-8.7H65
		c1.7,0,3.1-1.4,3.1-3.1s-1.4-3.1-3.1-3.1H38.5c-1.7,0-3.1,1.4-3.1,3.1s1.4,3.1,3.1,3.1h8.7l8.2,13.5l-7.9,13.3
		c-4.2-1.9-8.8-2.9-13.6-2.9C15.2,69.6,0,84.8,0,103.4c0,18.6,15.2,33.8,33.8,33.8c17.3,0,31.6-13.1,33.5-29.9h19
		c0.6,0,1.1-0.2,1.6-0.4c0,0,0,0,0,0c0.4-0.3,0.7-0.6,1-1c0,0,0.1,0,0.1-0.1l25.5-42.9l8.2,13.5c-8.2,6.2-13.5,16-13.5,27
		c0,18.6,15.1,33.8,33.8,33.8s33.8-15.1,33.8-33.8C176.7,84.8,161.5,69.6,142.9,69.6z M59,65.2l21.7,35.8H67.4
		c-0.7-10.6-6.3-19.8-14.6-25.5L59,65.2z M61.1,101.1H37.7L49.7,81C56.1,85.5,60.4,92.8,61.1,101.1z M33.8,130.9
		c-15.2,0-27.5-12.4-27.5-27.5s12.4-27.5,27.5-27.5c3.7,0,7.2,0.8,10.4,2.1l-14.7,24.6c-0.6,1-0.6,2.2,0,3.1c0.5,1,1.6,1.6,2.7,1.6
		h28.7C59,120.6,47.6,130.9,33.8,130.9z M86.2,98.1L63.4,60.5h45.2L86.2,98.1z M142.9,130.9c-15.2,0-27.5-12.4-27.5-27.5
		c0-8.8,4.2-16.5,10.6-21.6l14.5,23.9c0.6,1,1.6,1.5,2.7,1.5c0.6,0,1.1-0.1,1.6-0.5c1.5-0.9,1.9-2.8,1-4.3l-14.6-24
		c3.6-1.7,7.5-2.7,11.6-2.7c15.2,0,27.5,12.3,27.5,27.5S158.1,130.9,142.9,130.9z"/>
</g>
</svg>
